<?xml version="1.0" standalone="no"?>
<!DOCTYPE svg PUBLIC "-//W3C//DTD SVG 20010904//EN"
 "http://www.w3.org/TR/2001/REC-SVG-20010904/DTD/svg10.dtd">
<svg version="1.0" xmlns="http://www.w3.org/2000/svg"
 width="835.000000pt" height="835.000000pt" viewBox="0 0 835.000000 835.000000"
 preserveAspectRatio="xMidYMid meet">
<metadata>
Created by potrace 1.11, written by Peter Selinger 2001-2013
</metadata>
<g transform="translate(0.000000,835.000000) scale(0.100000,-0.100000)"
fill="#000000" stroke="none">
<path d="M3459 8246 c-2 -2 -31 -7 -64 -10 -73 -7 -239 -47 -320 -76 -179 -66
-326 -155 -451 -273 -74 -70 -174 -198 -190 -244 -4 -10 -12 -25 -19 -33 -23
-29 -87 -226 -101 -310 -2 -14 -9 -45 -14 -70 -6 -25 -12 -61 -14 -80 -4 -31
-16 -113 -32 -205 -3 -16 -7 -43 -10 -60 -3 -16 -18 -81 -34 -143 -82 -315
-212 -470 -650 -772 -365 -252 -507 -400 -575 -604 -28 -85 -34 -124 -35 -226
-1 -84 2 -103 31 -210 41 -152 154 -350 390 -680 163 -228 257 -391 310 -534
27 -73 36 -103 55 -196 4 -19 7 -84 7 -145 -1 -207 -63 -382 -269 -757 -155
-280 -237 -492 -259 -667 -10 -75 -18 -172 -18 -221 0 -66 13 -242 18 -250 2
-4 7 -29 10 -56 4 -27 20 -96 36 -153 128 -448 420 -808 807 -993 46 -22 92
-41 102 -43 10 -2 28 -8 38 -14 23 -12 199 -58 257 -66 22 -4 54 -9 70 -12 17
-3 93 -6 170 -8 293 -6 556 56 815 192 94 50 151 88 253 171 l67 54 0 1079 0
1079 -639 2 -640 3 64 145 c35 80 60 149 56 155 -4 5 -15 28 -23 50 -9 22 -30
69 -47 106 -16 36 -35 77 -40 92 l-11 27 640 0 640 0 0 175 0 175 -107 -54
c-60 -29 -199 -99 -310 -154 l-202 -101 -113 5 c-141 6 -343 13 -425 15 -35 1
-63 5 -63 9 0 4 24 41 53 81 47 65 217 305 272 383 15 21 125 81 455 246 l435
217 3 207 2 206 -640 0 c-352 0 -640 2 -640 5 0 3 16 39 35 81 19 41 35 77 35
79 0 3 12 29 26 60 30 62 29 73 -15 167 -41 88 -81 180 -81 184 0 2 288 4 640
4 l640 0 0 248 0 247 138 0 137 0 3 -248 2 -247 249 0 249 0 83 -46 c46 -26
109 -60 139 -76 30 -17 78 -43 105 -58 28 -15 82 -44 120 -65 39 -20 73 -40
77 -44 7 -6 -46 -36 -329 -188 -35 -18 -92 -49 -128 -68 l-64 -35 -251 0 -250
0 0 -136 c0 -75 3 -134 8 -132 4 2 157 79 341 171 184 92 335 166 337 164 2
-2 13 -226 14 -275 0 -22 8 -39 26 -55 15 -12 34 -29 43 -38 9 -8 51 -44 94
-78 43 -35 75 -66 72 -69 -3 -4 -214 -111 -468 -238 l-462 -231 -3 -247 -2
-246 250 0 251 0 77 -43 c42 -24 113 -63 157 -87 193 -103 295 -164 288 -170
-4 -4 -57 -33 -118 -65 -60 -32 -132 -70 -160 -85 -27 -15 -94 -50 -147 -79
l-97 -51 -250 0 -251 0 0 -902 0 -903 22 35 c11 19 31 51 44 70 12 19 76 132
141 250 209 377 298 508 447 656 167 165 317 252 576 329 47 14 99 28 115 31
17 2 37 7 45 9 8 2 29 7 45 10 17 2 41 7 55 10 14 3 41 8 60 10 19 3 44 7 56
10 12 2 39 7 60 10 21 3 64 10 94 15 30 5 73 12 95 16 34 4 235 45 299 59 99
23 241 73 341 122 63 31 162 89 175 103 3 3 23 18 45 34 122 90 287 298 373
471 34 69 85 197 98 245 2 8 12 45 23 81 10 36 21 83 25 105 3 21 7 48 10 60
4 19 7 45 21 163 12 101 5 374 -11 454 -3 16 -7 38 -9 50 -18 144 -88 387
-170 587 -120 296 -288 594 -569 1010 -120 178 -166 245 -291 425 -23 33 -82
119 -130 190 -348 509 -542 758 -764 981 -245 247 -470 408 -730 525 -100 44
-256 103 -306 114 -11 3 -66 16 -121 30 -56 13 -119 27 -140 30 -22 2 -50 7
-64 10 -24 5 -48 8 -165 21 -63 7 -450 15 -456 10z"/>
</g>
</svg>
